<?xml version="1.0" standalone="no"?>
<!DOCTYPE svg PUBLIC "-//W3C//DTD SVG 20010904//EN"
 "http://www.w3.org/TR/2001/REC-SVG-20010904/DTD/svg10.dtd">
<svg version="1.0" xmlns="http://www.w3.org/2000/svg"
 width="320.000000pt" height="320.000000pt" viewBox="0 0 320.000000 320.000000"
 preserveAspectRatio="xMidYMid meet">
<metadata>
Created by potrace 1.14, written by Peter Selinger 2001-2017
</metadata>
<g transform="translate(0.000000,320.000000) scale(0.100000,-0.100000)"
fill="#000000" stroke="none">
<path d="M100 1851 l0 -250 53 -3 52 -3 -3 -37 c-2 -33 0 -37 19 -33 12 2 18
1 15 -3 -4 -4 -13 -7 -19 -7 -9 0 -13 -58 -15 -207 l-2 -208 50 0 c28 0 50 -5
50 -11 0 -5 5 -7 12 -3 7 5 8 3 2 -7 -5 -8 -10 -25 -12 -37 -2 -17 1 -22 10
-16 11 6 11 5 0 -8 -11 -14 24 -15 360 -16 266 0 377 3 387 12 11 8 13 8 7 -1
-9 -17 133 -16 153 0 11 9 13 9 8 0 -10 -17 771 -17 792 0 12 9 13 9 7 0 -9
-17 133 -16 153 0 11 9 13 9 8 1 -10 -17 772 -16 792 0 11 8 13 8 7 -1 -5 -9
8 -12 54 -12 l60 1 0 32 c0 18 -6 38 -12 45 -10 11 -10 13 0 7 8 -5 12 2 13
21 1 18 3 22 6 10 5 -20 46 -21 72 -2 11 7 13 7 7 -2 -4 -7 -3 -13 3 -13 13 0
12 208 -1 234 -7 12 -7 16 0 12 15 -9 14 114 0 132 -7 9 -8 13 -3 10 7 -4 10
33 10 110 l0 117 -32 -1 c-18 0 -30 3 -28 7 3 3 18 5 35 4 29 -2 30 -2 27 39
-1 22 -6 47 -11 55 -6 10 -5 12 2 7 8 -5 12 1 12 14 0 13 -4 19 -11 14 -8 -5
-8 -1 0 14 15 29 15 29 -21 30 -18 0 -42 -7 -53 -16 -19 -16 -19 -16 -6 1 9
11 10 17 2 17 -7 0 -11 20 -11 50 l0 50 -50 0 -50 0 0 50 0 50 -1450 0 -1450
0 0 -249z m3068 -16 c3 -3 -4 -4 -16 -2 -12 2 -24 6 -28 10 -4 3 4 4 16 2 12
-2 25 -7 28 -10z m9 -47 c-3 -8 -6 -5 -6 6 -1 11 2 17 5 13 3 -3 4 -12 1 -19z
m-54 -11 c-4 -7 1 -8 12 -3 18 6 18 6 2 -12 -9 -10 -14 -21 -11 -24 3 -3 1 -9
-5 -12 -6 -4 -8 2 -6 15 3 13 0 28 -5 34 -7 8 -5 12 5 12 8 0 11 -5 8 -10z
m61 -23 c3 -8 2 -12 -4 -9 -6 3 -10 10 -10 16 0 14 7 11 14 -7z m-18 -79 c0
-14 -4 -25 -8 -25 -6 0 -5 25 1 48 3 10 7 -2 7 -23z m7 -48 c3 -7 -3 -13 -14
-13 -13 0 -15 3 -7 13 6 7 12 13 13 13 2 0 5 -6 8 -13z m-39 -25 c2 -4 -4 -8
-14 -8 -10 0 -16 4 -14 8 3 4 9 8 14 8 5 0 11 -4 14 -8z m-2847 -28 c-3 -3
-12 -4 -19 -1 -8 3 -5 6 6 6 11 1 17 -2 13 -5z m2861 -19 c-3 -3 -9 2 -12 12
-6 14 -5 15 5 6 7 -7 10 -15 7 -18z m29 -37 c-3 -8 -6 -5 -6 6 -1 11 2 17 5
13 3 -3 4 -12 1 -19z m-50 -8 c-2 -11 -6 -22 -9 -26 -4 -3 -5 2 -3 13 2 10 4
21 4 26 1 4 3 7 6 7 3 0 4 -9 2 -20z m40 -57 c-14 -14 -19 -15 -29 -4 -11 10
-10 11 3 6 10 -4 20 -2 24 4 3 6 9 11 13 11 3 0 -1 -8 -11 -17z m3 -33 c0 -5
-4 -10 -10 -10 -5 0 -10 5 -10 10 0 6 5 10 10 10 6 0 10 -4 10 -10z m3 -33 c3
-7 -3 -13 -14 -13 -13 0 -15 3 -7 13 6 7 12 13 13 13 2 0 5 -6 8 -13z m-46
-83 c-3 -3 -12 -4 -19 -1 -8 3 -5 6 6 6 11 1 17 -2 13 -5z m43 -44 c0 -5 -4
-10 -10 -10 -5 0 -10 5 -10 10 0 6 5 10 10 10 6 0 10 -4 10 -10z m3 -33 c3 -7
-3 -13 -14 -13 -13 0 -15 3 -7 13 6 7 12 13 13 13 2 0 5 -6 8 -13z m-48 -6 c3
-5 0 -13 -6 -17 -7 -4 -9 -3 -5 4 3 5 0 13 -6 15 -9 4 -10 6 -1 6 6 1 14 -3
18 -8z m-80 -42 c-3 -12 -7 -24 -10 -27 -3 -3 -3 5 -1 19 6 30 5 29 10 29 3 0
3 -10 1 -21z m123 -6 c-6 -7 -12 -13 -13 -13 -2 0 -5 6 -8 13 -3 7 3 13 14 13
13 0 15 -3 7 -13z m-77 -36 c-6 -8 -8 -16 -5 -19 3 -3 1 -9 -4 -12 -6 -3 -9 0
-8 6 2 16 15 38 23 38 3 0 0 -6 -6 -13z m79 4 c0 -6 -4 -12 -8 -15 -5 -3 -9 1
-9 9 0 8 4 15 9 15 4 0 8 -4 8 -9z m-113 -23 c-3 -8 -6 -5 -6 6 -1 11 2 17 5
13 3 -3 4 -12 1 -19z m-32 3 c3 -5 2 -12 -3 -15 -5 -3 -9 1 -9 9 0 17 3 19 12
6z m-2636 -47 c-14 -13 -16 -13 -16 0 0 8 4 13 9 10 4 -3 8 0 8 7 0 7 3 9 7 5
4 -3 0 -13 -8 -22z m74 11 c-3 -9 -8 -14 -10 -11 -3 3 -2 9 2 15 9 16 15 13 8
-4z m97 0 c0 -2 -6 -5 -13 -8 -8 -3 -14 1 -14 8 0 7 6 11 14 8 7 -3 13 -6 13
-8z m240 0 c0 -2 -6 -5 -13 -8 -8 -3 -14 1 -14 8 0 7 6 11 14 8 7 -3 13 -6 13
-8z m69 -11 c-14 -13 -16 -13 -16 0 0 8 4 13 9 10 4 -3 8 0 8 7 0 7 3 9 7 5 4
-3 0 -13 -8 -22z m74 11 c-3 -9 -8 -14 -10 -11 -3 3 -2 9 2 15 9 16 15 13 8
-4z m340 0 c-3 -9 -8 -14 -10 -11 -3 3 -2 9 2 15 9 16 15 13 8 -4z m77 0 c0
-2 -6 -5 -13 -8 -8 -3 -14 1 -14 8 0 7 6 11 14 8 7 -3 13 -6 13 -8z m250 8 c0
-1 -8 -7 -18 -12 -13 -7 -19 -6 -19 2 0 7 9 13 19 13 10 0 18 -1 18 -3z m70
-8 c0 -2 -6 -5 -13 -8 -8 -3 -14 1 -14 8 0 7 6 11 14 8 7 -3 13 -6 13 -8z
m240 0 c0 -2 -6 -5 -13 -8 -8 -3 -14 1 -14 8 0 7 6 11 14 8 7 -3 13 -6 13 -8z
m389 -11 c-14 -13 -16 -13 -16 0 0 8 4 13 9 10 4 -3 8 0 8 7 0 7 3 9 7 5 4 -3
0 -13 -8 -22z m74 11 c-3 -9 -8 -14 -10 -11 -3 3 -2 9 2 15 9 16 15 13 8 -4z
m97 0 c0 -2 -6 -5 -13 -8 -8 -3 -14 1 -14 8 0 7 6 11 14 8 7 -3 13 -6 13 -8z
m240 0 c0 -2 -6 -5 -13 -8 -8 -3 -14 1 -14 8 0 7 6 11 14 8 7 -3 13 -6 13 -8z
m69 -11 c-14 -13 -16 -13 -16 0 0 8 4 13 9 10 4 -3 8 0 8 7 0 7 3 9 7 5 4 -3
0 -13 -8 -22z m-2142 -4 c-1 -11 -5 -20 -9 -20 -3 0 -6 9 -5 20 1 11 5 20 9
20 3 0 6 -9 5 -20z m800 0 c-1 -11 -5 -20 -9 -20 -3 0 -6 9 -5 20 1 11 5 20 9
20 3 0 6 -9 5 -20z m320 0 c-1 -11 -5 -20 -9 -20 -3 0 -6 9 -5 20 1 11 5 20 9
20 3 0 6 -9 5 -20z m800 0 c-1 -11 -5 -20 -9 -20 -3 0 -6 9 -5 20 1 11 5 20 9
20 3 0 6 -9 5 -20z m483 10 c0 -5 -4 -10 -10 -10 -5 0 -10 5 -10 10 0 6 5 10
10 10 6 0 10 -4 10 -10z m-2475 -19 c-9 -8 -36 -10 -30 -2 2 4 11 8 20 8 8 0
13 -3 10 -6z m115 5 c0 -2 -7 -7 -16 -10 -8 -3 -12 -2 -9 4 6 10 25 14 25 6z
m279 -13 c-12 -14 -12 -16 2 -11 9 4 16 1 16 -7 0 -8 -7 -11 -15 -7 -9 3 -13
1 -9 -5 3 -5 0 -10 -8 -10 -11 0 -12 4 -4 14 6 7 8 13 4 13 -4 0 -2 7 5 15 7
8 15 15 17 15 3 0 -1 -8 -8 -17z m122 4 c-6 -8 -8 -17 -4 -20 3 -4 1 -7 -5 -7
-15 0 -15 13 0 28 16 16 23 15 9 -1z m160 0 c-6 -8 -8 -17 -4 -20 3 -4 1 -7
-5 -7 -15 0 -15 13 0 28 16 16 23 15 9 -1z m124 4 c-9 -8 -36 -10 -30 -2 2 4
11 8 20 8 8 0 13 -3 10 -6z m115 5 c0 -2 -7 -7 -16 -10 -8 -3 -12 -2 -9 4 6
10 25 14 25 6z m205 -5 c-9 -8 -36 -10 -30 -2 2 4 11 8 20 8 8 0 13 -3 10 -6z
m115 5 c0 -2 -7 -7 -16 -10 -8 -3 -12 -2 -9 4 6 10 25 14 25 6z m125 -5 c-9
-8 -36 -10 -30 -2 2 4 11 8 20 8 8 0 13 -3 10 -6z m116 -4 c-6 -8 -8 -17 -4
-20 3 -4 1 -7 -5 -7 -15 0 -15 13 0 28 16 16 23 15 9 -1z m160 0 c-6 -8 -8
-17 -4 -20 3 -4 1 -7 -5 -7 -15 0 -15 13 0 28 16 16 23 15 9 -1z m284 4 c-9
-8 -36 -10 -30 -2 2 4 11 8 20 8 8 0 13 -3 10 -6z m115 5 c0 -2 -7 -7 -16 -10
-8 -3 -12 -2 -9 4 6 10 25 14 25 6z m279 -13 c-12 -14 -12 -16 2 -11 9 4 16 1
16 -7 0 -8 -7 -11 -15 -7 -11 4 -13 1 -7 -8 5 -8 4 -11 -3 -7 -15 10 -3 57 15
57 3 0 -1 -8 -8 -17z m122 4 c-6 -8 -8 -17 -4 -20 3 -4 1 -7 -5 -7 -15 0 -15
13 0 28 16 16 23 15 9 -1z m-2554 -19 c-3 -8 -6 -5 -6 6 -1 11 2 17 5 13 3 -3
4 -12 1 -19z m480 0 c-3 -8 -6 -5 -6 6 -1 11 2 17 5 13 3 -3 4 -12 1 -19z
m1440 0 c-3 -8 -6 -5 -6 6 -1 11 2 17 5 13 3 -3 4 -12 1 -19z m480 0 c-3 -8
-6 -5 -6 6 -1 11 2 17 5 13 3 -3 4 -12 1 -19z m-2476 -5 c10 -12 11 -15 1 -9
-7 4 -20 2 -30 -6 -15 -11 -15 -11 -5 3 7 9 10 19 6 22 -3 4 -2 7 4 7 6 0 17
-8 24 -17z m139 7 c8 -5 11 -10 5 -10 -5 0 -17 5 -25 10 -8 5 -10 10 -5 10 6
0 17 -5 25 -10z m240 0 c12 -7 10 -9 -8 -7 -12 0 -22 5 -22 9 0 11 12 10 30
-2z m101 -7 c10 -12 11 -15 1 -9 -7 4 -20 2 -30 -6 -15 -11 -15 -11 -5 3 7 9
10 19 6 22 -3 4 -2 7 4 7 6 0 17 -8 24 -17z m286 3 c0 -8 -6 -12 -15 -9 -11 5
-11 7 0 14 7 5 13 9 14 9 0 0 1 -6 1 -14z m173 4 c8 -5 11 -10 5 -10 -5 0 -17
5 -25 10 -8 5 -10 10 -5 10 6 0 17 -5 25 -10z m240 0 c8 -5 11 -10 5 -10 -5 0
-17 5 -25 10 -8 5 -10 10 -5 10 6 0 17 -5 25 -10z m80 0 c8 -5 11 -10 5 -10
-5 0 -17 5 -25 10 -8 5 -10 10 -5 10 6 0 17 -5 25 -10z m240 0 c12 -7 10 -9
-8 -7 -12 0 -22 5 -22 9 0 11 12 10 30 -2z m67 -4 c0 -8 -6 -12 -15 -9 -11 5
-11 7 0 14 7 5 13 9 14 9 0 0 1 -6 1 -14z m160 0 c0 -8 -6 -12 -15 -9 -11 5
-11 7 0 14 7 5 13 9 14 9 0 0 1 -6 1 -14z m194 -3 c10 -12 11 -15 1 -9 -7 4
-20 2 -30 -6 -15 -11 -15 -11 -5 3 7 9 10 19 6 22 -3 4 -2 7 4 7 6 0 17 -8 24
-17z m139 7 c8 -5 11 -10 5 -10 -5 0 -17 5 -25 10 -8 5 -10 10 -5 10 6 0 17
-5 25 -10z m240 0 c12 -7 10 -9 -8 -7 -12 0 -22 5 -22 9 0 11 12 10 30 -2z
m101 -7 c10 -12 11 -15 1 -9 -7 4 -20 2 -30 -6 -15 -11 -15 -11 -5 3 7 9 10
19 6 22 -3 4 -2 7 4 7 6 0 17 -8 24 -17z m309 7 c0 -5 -5 -10 -11 -10 -5 0 -7
5 -4 10 3 6 8 10 11 10 2 0 4 -4 4 -10z m-2516 -16 c3 -8 2 -12 -4 -9 -6 3
-10 10 -10 16 0 14 7 11 14 -7z m73 1 c0 -8 -4 -15 -9 -15 -10 0 -11 14 -1 23
9 10 10 9 10 -8z m727 -1 c3 -8 2 -12 -4 -9 -6 3 -10 10 -10 16 0 14 7 11 14
-7z m73 1 c0 -8 -4 -15 -9 -15 -10 0 -11 14 -1 23 9 10 10 9 10 -8z m247 -1
c3 -8 2 -12 -4 -9 -6 3 -10 10 -10 16 0 14 7 11 14 -7z m73 1 c0 -8 -4 -15 -9
-15 -10 0 -11 14 -1 23 9 10 10 9 10 -8z m727 -1 c3 -8 2 -12 -4 -9 -6 3 -10
10 -10 16 0 14 7 11 14 -7z m73 1 c0 -8 -4 -15 -9 -15 -10 0 -11 14 -1 23 9
10 10 9 10 -8z m-2072 -4 c-9 -8 -36 -10 -30 -2 2 4 11 8 20 8 8 0 13 -3 10
-6z m229 1 c3 -5 -1 -9 -9 -9 -8 0 -12 4 -9 9 3 4 7 8 9 8 2 0 6 -4 9 -8z
m811 -1 c-9 -8 -36 -10 -30 -2 2 4 11 8 20 8 8 0 13 -3 10 -6z m309 1 c3 -5
-1 -9 -9 -9 -8 0 -12 4 -9 9 3 4 7 8 9 8 2 0 6 -4 9 -8z m571 -1 c-9 -8 -36
-10 -30 -2 2 4 11 8 20 8 8 0 13 -3 10 -6z m229 1 c3 -5 -1 -9 -9 -9 -8 0 -12
4 -9 9 3 4 7 8 9 8 2 0 6 -4 9 -8z"/>
</g>
</svg>
